<svg width="32" height="32" viewBox="0 0 32 32" fill="none" xmlns="http://www.w3.org/2000/svg">
<circle cx="16" cy="16" r="15.5" fill="#D9D9D9" stroke="#D9D9D9"/>
<path d="M26 16.0607C26 10.504 21.5233 6 16 6C10.4767 6 6 10.504 6 16.0607C6 21.0833 9.656 25.2453 14.4373 26V18.9693H11.8987V16.06H14.4373V13.844C14.4373 11.3227 15.93 9.92933 18.2147 9.92933C19.308 9.92933 20.4533 10.126 20.4533 10.126V12.602H19.1913C17.9493 12.602 17.5627 13.378 17.5627 14.174V16.0607H20.336L19.8927 18.9687H17.5627V26C22.344 25.2453 26 21.0833 26 16.0607Z" fill="black"/>
</svg>
