<svg width="32" height="32" viewBox="0 0 32 32" fill="none" xmlns="http://www.w3.org/2000/svg">
<circle cx="16" cy="16" r="15.5" fill="#D9D9D9" stroke="#D9D9D9"/>
<path fill-rule="evenodd" clip-rule="evenodd" d="M16 7C13.5556 7 13.2496 7.0102 12.2896 7.054C11.3314 7.0978 10.6768 7.2502 10.1044 7.4728C9.5044 7.6984 8.9602 8.0524 8.5102 8.5108C8.05253 8.96028 7.69831 9.5041 7.4722 10.1044C7.2508 10.6768 7.0978 11.332 7.054 12.2902C7.0108 13.2496 7 13.555 7 16C7 18.445 7.0102 18.7504 7.054 19.7104C7.0978 20.6686 7.2502 21.3232 7.4728 21.8956C7.6984 22.4956 8.0524 23.0398 8.5108 23.4898C8.96029 23.9475 9.50411 24.3017 10.1044 24.5278C10.6768 24.7498 11.3314 24.9022 12.2896 24.946C13.2496 24.9898 13.5556 25 16 25C18.4444 25 18.7504 24.9898 19.7104 24.946C20.6686 24.9022 21.3232 24.7498 21.8956 24.5272C22.4956 24.3016 23.0398 23.9476 23.4898 23.4892C23.9475 23.0397 24.3017 22.4959 24.5278 21.8956C24.7498 21.3232 24.9022 20.6686 24.946 19.7104C24.9898 18.7504 25 18.4444 25 16C25 13.5556 24.9898 13.2496 24.946 12.2896C24.9022 11.3314 24.7498 10.6768 24.5272 10.1044C24.3012 9.50384 23.947 8.95979 23.4892 8.5102C23.0397 8.05253 22.4959 7.69831 21.8956 7.4722C21.3232 7.2508 20.668 7.0978 19.7098 7.054C18.7504 7.0108 18.445 7 16 7ZM16 8.6218C18.403 8.6218 18.688 8.6308 19.6372 8.674C20.5144 8.7142 20.9908 8.86 21.3082 8.9842C21.7282 9.1468 22.0282 9.3424 22.3432 9.6568C22.6582 9.9718 22.8532 10.2718 23.0158 10.6918C23.1394 11.0092 23.2858 11.4856 23.326 12.3628C23.3692 13.312 23.3782 13.597 23.3782 16C23.3782 18.403 23.3692 18.688 23.326 19.6372C23.2858 20.5144 23.14 20.9908 23.0158 21.3082C22.8718 21.6991 22.6419 22.0528 22.3432 22.3432C22.0528 22.642 21.6992 22.8718 21.3082 23.0158C20.9908 23.1394 20.5144 23.2858 19.6372 23.326C18.688 23.3692 18.4036 23.3782 16 23.3782C13.5964 23.3782 13.312 23.3692 12.3628 23.326C11.4856 23.2858 11.0092 23.14 10.6918 23.0158C10.3009 22.8718 9.9472 22.6419 9.6568 22.3432C9.35811 22.0528 9.12828 21.6991 8.9842 21.3082C8.8606 20.9908 8.7142 20.5144 8.674 19.6372C8.6308 18.688 8.6218 18.403 8.6218 16C8.6218 13.597 8.6308 13.312 8.674 12.3628C8.7142 11.4856 8.86 11.0092 8.9842 10.6918C9.1468 10.2718 9.3424 9.9718 9.6568 9.6568C9.94716 9.35803 10.3008 9.12819 10.6918 8.9842C11.0092 8.8606 11.4856 8.7142 12.3628 8.674C13.312 8.6308 13.597 8.6218 16 8.6218Z" fill="black"/>
<path fill-rule="evenodd" clip-rule="evenodd" d="M16 19.003C15.6057 19.003 15.2152 18.9254 14.8508 18.7744C14.4865 18.6235 14.1554 18.4023 13.8766 18.1235C13.5977 17.8446 13.3765 17.5136 13.2256 17.1492C13.0747 16.7849 12.997 16.3944 12.997 16C12.997 15.6057 13.0747 15.2152 13.2256 14.8508C13.3765 14.4865 13.5977 14.1554 13.8766 13.8766C14.1554 13.5977 14.4865 13.3765 14.8508 13.2256C15.2152 13.0747 15.6057 12.997 16 12.997C16.7965 12.997 17.5603 13.3134 18.1235 13.8766C18.6866 14.4398 19.003 15.2036 19.003 16C19.003 16.7965 18.6866 17.5603 18.1235 18.1235C17.5603 18.6866 16.7965 19.003 16 19.003ZM16 11.374C14.7731 11.374 13.5965 11.8614 12.7289 12.729C11.8614 13.5965 11.374 14.7731 11.374 16C11.374 17.2269 11.8614 18.4036 12.7289 19.2711C13.5965 20.1387 14.7731 20.626 16 20.626C17.2269 20.626 18.4036 20.1387 19.2711 19.2711C20.1386 18.4036 20.626 17.2269 20.626 16C20.626 14.7731 20.1386 13.5965 19.2711 12.729C18.4036 11.8614 17.2269 11.374 16 11.374ZM21.9718 11.29C21.9718 11.58 21.8566 11.8582 21.6515 12.0633C21.4465 12.2683 21.1683 12.3835 20.8783 12.3835C20.5883 12.3835 20.3102 12.2683 20.1051 12.0633C19.9 11.8582 19.7848 11.58 19.7848 11.29C19.7848 11 19.9 10.7219 20.1051 10.5168C20.3102 10.3117 20.5883 10.1965 20.8783 10.1965C21.1683 10.1965 21.4465 10.3117 21.6515 10.5168C21.8566 10.7219 21.9718 11 21.9718 11.29Z" fill="black"/>
</svg>
