<svg width="32" height="32" viewBox="0 0 32 32" fill="none" xmlns="http://www.w3.org/2000/svg">
<circle cx="16" cy="16" r="15.5" fill="#D9D9D9" stroke="#D9D9D9"/>
<path d="M22.1154 10.0089C21.0381 9.30651 20.2605 8.18262 20.018 6.87246C19.9656 6.5894 19.9368 6.29807 19.9368 6H16.4984L16.4929 19.78C16.435 21.3231 15.165 22.5616 13.608 22.5616C13.1241 22.5616 12.6685 22.4406 12.2673 22.2295C11.3473 21.7454 10.7177 20.781 10.7177 19.6713C10.7177 18.0775 12.0144 16.7808 13.608 16.7808C13.9055 16.7808 14.1909 16.8299 14.4609 16.9145V13.4042C14.1815 13.3662 13.8977 13.3424 13.608 13.3424C10.1183 13.3424 7.2793 16.1816 7.2793 19.6713C7.2793 21.8124 8.34905 23.7072 9.98108 24.853C11.0091 25.5747 12.2595 26 13.608 26C17.0978 26 19.9368 23.161 19.9368 19.6713V12.6837C21.2854 13.6516 22.9376 14.222 24.7205 14.222V10.7836C23.7601 10.7836 22.8656 10.4981 22.1154 10.0089Z" fill="black"/>
</svg>
