<svg width="32" height="32" viewBox="0 0 32 32" fill="none" xmlns="http://www.w3.org/2000/svg">
<circle cx="16" cy="16" r="15.5" fill="#D9D9D9" stroke="#D9D9D9"/>
<path fill-rule="evenodd" clip-rule="evenodd" d="M23.792 9.41483C24.6521 9.64589 25.3325 10.3263 25.5635 11.1863C25.9872 12.7524 26 16.0002 26 16.0002C26 16.0002 26 19.2608 25.5764 20.8141C25.3453 21.6741 24.665 22.3545 23.8049 22.5856C22.2516 23.0092 16 23.0092 16 23.0092C16 23.0092 9.74839 23.0092 8.19512 22.5856C7.33504 22.3545 6.65469 21.6741 6.42362 20.8141C6 19.248 6 16.0002 6 16.0002C6 16.0002 6 12.7524 6.41078 11.1992C6.64185 10.3391 7.32221 9.65873 8.18229 9.42767C9.73556 9.00404 15.9872 8.99121 15.9872 8.99121C15.9872 8.99121 22.2388 8.99121 23.792 9.41483ZM19.1836 16.0002L13.9974 19.004V12.9963L19.1836 16.0002Z" fill="black"/>
</svg>
